<svg id="Capa_1" enable-background="new 0 0 512 512" viewBox="0 0 512 512" xmlns="http://www.w3.org/2000/svg"><g><path d="m466 452h-15c-24.814 0-45-20.186-45-45v-76c0-9.551-1.816-19.087-5.713-29.985l-.015-.015h20.728c49.629 0 91-40.371 91-90 0-16.538-13.462-30-30-30-16.659 0-30.181 13.546-30 30.366.22 16.58-14.744 29.634-31 29.634h-49.248c-7.969-30.776-27.495-57.675-54.99-73.949l28.037-46.758.22-.337.981.044c33.091 0 60-26.909 60-60s-26.909-60-60-60-60 26.909-60 60c0 9.902 2.593 19.614 7.705 28.857l-9.829 23.76c-4.834 11.675-15.249 18.633-27.876 18.633s-23.042-6.973-27.876-18.647l-9.829-23.745c5.112-9.244 7.705-18.956 7.705-28.858 0-33.091-26.909-60-60-60s-60 26.909-60 60c0 33.032 26.968 59.912 60.103 59.912.015 0 .322-.015.835-.029l28.301 47.168h-.015c-27.466 16.26-46.992 43.173-54.976 73.949h-50.248c-16.287 0-30.22-13.074-30-29.663.183-16.795-13.359-30.337-30-30.337-16.538 0-30 13.462-30 30 0 49.629 40.371 89.99 90 89.99h22.108v.015c-4.057 11.103-6.108 22.407-6.108 33.555v72.44c0 24.814-20.186 45-45 45h-15c-16.538 0-30 13.462-30 30s13.462 30 30 30h15c57.891 0 105-47.109 105-105v-46c0-16.538 13.462-30 30-30s30 13.462 30 30v121c0 16.538 13.462 30 30 30s30-13.462 30-30v-121c0-16.538 13.462-30 30-30s30 13.462 30 30v46c0 57.891 47.109 105 105 105h15c16.538 0 30-13.462 30-30s-13.462-30-30-30z" fill="#989eec"/><path d="m286 482v-121c0-16.538 13.462-30 30-30s30 13.462 30 30v46c0 57.891 47.109 105 105 105h15c16.538 0 30-13.462 30-30s-13.462-30-30-30h-15c-24.814 0-45-20.186-45-45v-76c0-9.551-1.816-19.087-5.713-29.985l-.015-.015h20.728c49.629 0 91-40.371 91-90 0-16.538-13.462-30-30-30-16.659 0-30.181 13.546-30 30.366.22 16.58-14.744 29.634-31 29.634h-49.248c-7.969-30.776-27.495-57.675-54.99-73.949l28.037-46.758.22-.337.981.044c33.091 0 60-26.909 60-60s-26.909-60-60-60-60 26.909-60 60c0 9.902 2.593 19.614 7.705 28.857l-9.829 23.76c-4.834 11.675-15.249 18.633-27.876 18.633v380.75c16.538 0 30-13.462 30-30z" fill="#6e76e4"/><circle cx="165.999" cy="59.999" fill="#3f4a4a" r="15"/><circle cx="345.999" cy="59.999" fill="#323c3c" r="15"/><path d="m315.487 243.021c-7.222-4.204-16.392-1.714-20.493 5.464-8.042 13.887-22.983 22.515-38.994 22.515s-30.952-8.628-38.994-22.515c-4.146-7.178-13.33-9.668-20.493-5.464-7.163 4.146-9.624 13.315-5.464 20.493 13.374 23.116 38.262 37.486 64.951 37.486s51.577-14.37 64.951-37.485c4.16-7.178 1.699-16.348-5.464-20.494z" fill="#6e76e4"/><path d="m320.951 263.515c4.16-7.178 1.699-16.348-5.464-20.493-7.222-4.204-16.392-1.714-20.493 5.464-8.042 13.886-22.983 22.514-38.994 22.514v30c26.689 0 51.577-14.37 64.951-37.485z" fill="#5f5ace"/></g></svg>